<svg width="35" height="35" viewBox="0 0 35 35" fill="none" xmlns="http://www.w3.org/2000/svg">
<path d="M11.6663 32.0834C12.4718 32.0834 13.1247 31.4304 13.1247 30.625C13.1247 29.8196 12.4718 29.1667 11.6663 29.1667C10.8609 29.1667 10.208 29.8196 10.208 30.625C10.208 31.4304 10.8609 32.0834 11.6663 32.0834Z" stroke="#FAFAFA" stroke-width="3" stroke-linecap="round" stroke-linejoin="round"/>
<path d="M27.7083 32.0834C28.5137 32.0834 29.1667 31.4304 29.1667 30.625C29.1667 29.8196 28.5137 29.1667 27.7083 29.1667C26.9029 29.1667 26.25 29.8196 26.25 30.625C26.25 31.4304 26.9029 32.0834 27.7083 32.0834Z" stroke="#FAFAFA" stroke-width="3" stroke-linecap="round" stroke-linejoin="round"/>
<path d="M2.98926 2.98956H5.90592L9.78509 21.1021C9.92739 21.7654 10.2965 22.3584 10.8288 22.7789C11.3612 23.1995 12.0235 23.4213 12.7018 23.4062H26.9643C27.6281 23.4052 28.2716 23.1777 28.7887 22.7614C29.3057 22.3451 29.6653 21.7649 29.808 21.1166L32.2143 10.2812H7.46634" stroke="#FAFAFA" stroke-width="3" stroke-linecap="round" stroke-linejoin="round"/>
</svg>
