<svg width="306" height="78" viewBox="0 0 306 78" fill="none" xmlns="http://www.w3.org/2000/svg">
<g clip-path="url(#clip0_16_555)">
<path d="M107.208 60.48C103.784 60.48 100.632 59.68 97.752 58.08C94.872 56.448 92.6 54.208 90.936 51.36C89.272 48.48 88.44 45.28 88.44 41.76C88.44 38.048 89.272 34.768 90.936 31.92C92.6 29.072 94.84 26.88 97.656 25.344C100.472 23.776 103.56 22.992 106.92 22.992C110.152 22.992 112.872 23.568 115.08 24.72C117.32 25.84 119.432 27.424 121.416 29.472C121.48 29.536 121.576 29.568 121.704 29.568C121.896 29.568 122.232 29.424 122.712 29.136L123.288 29.856L116.664 35.088L116.088 34.368C116.28 34.24 116.424 34.08 116.52 33.888C116.648 33.664 116.648 33.504 116.52 33.408C115.176 32.096 113.768 31.104 112.296 30.432C110.856 29.728 109.096 29.376 107.016 29.376C104.84 29.376 102.84 29.92 101.016 31.008C99.192 32.064 97.752 33.536 96.696 35.424C95.64 37.312 95.112 39.424 95.112 41.76C95.112 44 95.672 46.048 96.792 47.904C97.912 49.728 99.4 51.168 101.256 52.224C103.112 53.28 105.096 53.808 107.208 53.808C109.192 53.808 110.888 53.472 112.296 52.8C113.704 52.096 115.032 51.056 116.28 49.68L116.376 49.488C116.376 49.328 116.296 49.152 116.136 48.96C116.008 48.736 115.864 48.576 115.704 48.48L116.328 47.808L123.48 53.808L122.904 54.528C122.712 54.368 122.472 54.224 122.184 54.096C121.896 53.968 121.704 53.968 121.608 54.096C119.592 56.272 117.48 57.888 115.272 58.944C113.064 59.968 110.376 60.48 107.208 60.48ZM127.015 25.44C127.015 25.28 126.887 25.152 126.631 25.056C126.407 24.96 126.167 24.912 125.911 24.912V24H134.359V24.912C134.103 24.912 133.847 24.96 133.591 25.056C133.367 25.152 133.255 25.28 133.255 25.44V58.56C133.255 58.72 133.367 58.848 133.591 58.944C133.847 59.04 134.103 59.088 134.359 59.088V60H125.911V59.088C126.167 59.088 126.407 59.04 126.631 58.944C126.887 58.848 127.015 58.72 127.015 58.56V25.44ZM143.603 33.888C142.579 33.888 141.699 33.536 140.963 32.832C140.259 32.128 139.907 31.248 139.907 30.192C139.907 29.2 140.259 28.352 140.963 27.648C141.699 26.912 142.579 26.544 143.603 26.544C144.627 26.544 145.491 26.912 146.195 27.648C146.899 28.352 147.251 29.2 147.251 30.192C147.251 31.248 146.899 32.128 146.195 32.832C145.491 33.536 144.627 33.888 143.603 33.888ZM140.483 39.36C140.483 39.2 140.355 39.072 140.099 38.976C139.875 38.88 139.651 38.832 139.427 38.832V37.92H147.683V38.832C147.459 38.832 147.219 38.88 146.963 38.976C146.739 39.072 146.627 39.2 146.627 39.36V58.56C146.627 58.72 146.739 58.848 146.963 58.944C147.219 59.04 147.459 59.088 147.683 59.088V60H139.427V59.088C139.651 59.088 139.875 59.04 140.099 58.944C140.355 58.848 140.483 58.72 140.483 58.56V39.36ZM163.715 61.008C161.667 61.008 159.763 60.496 158.003 59.472C156.243 58.448 154.835 57.056 153.779 55.296C152.755 53.536 152.243 51.616 152.243 49.536C152.243 47.072 152.755 44.912 153.779 43.056C154.835 41.168 156.243 39.728 158.003 38.736C159.763 37.712 161.699 37.2 163.811 37.2C165.315 37.2 166.595 37.376 167.651 37.728C168.739 38.08 169.603 38.512 170.243 39.024C170.915 39.504 171.747 40.192 172.739 41.088C172.803 41.152 172.883 41.184 172.979 41.184C173.107 41.184 173.251 41.136 173.411 41.04C173.603 40.944 173.747 40.848 173.843 40.752L174.467 41.424L169.283 46.224L168.659 45.552C168.819 45.424 168.947 45.248 169.043 45.024C169.171 44.768 169.187 44.576 169.091 44.448C167.939 43.04 166.355 42.336 164.339 42.336C162.515 42.336 160.979 42.944 159.731 44.16C158.515 45.376 157.907 46.96 157.907 48.912C157.907 50.928 158.499 52.544 159.683 53.76C160.867 54.976 162.419 55.584 164.339 55.584C165.299 55.584 166.083 55.472 166.691 55.248C167.299 54.992 167.987 54.528 168.755 53.856C168.819 53.792 168.851 53.712 168.851 53.616C168.851 53.424 168.739 53.216 168.515 52.992L169.091 52.272L174.275 56.592L173.699 57.264C173.187 56.976 172.835 56.928 172.643 57.12C171.459 58.432 170.211 59.408 168.899 60.048C167.619 60.688 165.891 61.008 163.715 61.008ZM198.932 58.848C199.06 59.008 199.444 59.088 200.084 59.088V60H191.3V59.088C191.684 59.088 191.876 59.008 191.876 58.848C191.876 58.784 191.812 58.656 191.684 58.464L187.124 52.176L184.532 55.2V58.56C184.532 58.72 184.644 58.848 184.868 58.944C185.124 59.04 185.364 59.088 185.588 59.088V60H177.38V59.088C177.604 59.088 177.828 59.04 178.052 58.944C178.308 58.848 178.436 58.72 178.436 58.56V25.44C178.436 25.28 178.308 25.152 178.052 25.056C177.828 24.96 177.604 24.912 177.38 24.912V24H185.588V24.912C185.364 24.912 185.124 24.96 184.868 25.056C184.644 25.152 184.532 25.28 184.532 25.44V46.656L190.868 39.36L190.964 39.168C190.964 38.944 190.676 38.832 190.1 38.832V37.92H199.7V38.832H199.268C198.852 38.832 198.58 38.896 198.452 39.024L190.724 48L198.932 58.848ZM218.946 24C221.474 24 223.682 24.464 225.57 25.392C227.458 26.32 228.898 27.616 229.89 29.28C230.914 30.912 231.426 32.784 231.426 34.896C231.426 37.232 230.866 39.216 229.746 40.848C228.626 42.448 227.154 43.664 225.33 44.496C223.506 45.296 221.554 45.696 219.474 45.696H211.122V58.56C211.122 58.72 211.25 58.848 211.506 58.944C211.762 59.04 212.002 59.088 212.226 59.088V60H203.634V59.088C203.858 59.088 204.098 59.04 204.354 58.944C204.61 58.848 204.738 58.72 204.738 58.56V25.44C204.738 25.28 204.61 25.152 204.354 25.056C204.13 24.96 203.906 24.912 203.682 24.912V24H218.946ZM219.858 39.6C220.978 39.6 221.97 39.36 222.834 38.88C223.698 38.368 224.354 37.728 224.802 36.96C225.25 36.192 225.474 35.392 225.474 34.56C225.474 33.312 224.946 32.208 223.89 31.248C222.834 30.288 221.506 29.808 219.906 29.808H211.122V39.6H219.858ZM240.4 33.888C239.376 33.888 238.496 33.536 237.76 32.832C237.056 32.128 236.704 31.248 236.704 30.192C236.704 29.2 237.056 28.352 237.76 27.648C238.496 26.912 239.376 26.544 240.4 26.544C241.424 26.544 242.288 26.912 242.992 27.648C243.696 28.352 244.048 29.2 244.048 30.192C244.048 31.248 243.696 32.128 242.992 32.832C242.288 33.536 241.424 33.888 240.4 33.888ZM237.28 39.36C237.28 39.2 237.152 39.072 236.896 38.976C236.672 38.88 236.448 38.832 236.224 38.832V37.92H244.48V38.832C244.256 38.832 244.016 38.88 243.76 38.976C243.536 39.072 243.424 39.2 243.424 39.36V58.56C243.424 58.72 243.536 58.848 243.76 58.944C244.016 59.04 244.256 59.088 244.48 59.088V60H236.224V59.088C236.448 59.088 236.672 59.04 236.896 58.944C237.152 58.848 237.28 58.72 237.28 58.56V39.36ZM260.511 61.008C258.463 61.008 256.559 60.496 254.799 59.472C253.039 58.448 251.631 57.056 250.575 55.296C249.551 53.536 249.039 51.616 249.039 49.536C249.039 47.072 249.551 44.912 250.575 43.056C251.631 41.168 253.039 39.728 254.799 38.736C256.559 37.712 258.495 37.2 260.607 37.2C262.111 37.2 263.391 37.376 264.447 37.728C265.535 38.08 266.399 38.512 267.039 39.024C267.711 39.504 268.543 40.192 269.535 41.088C269.599 41.152 269.679 41.184 269.775 41.184C269.903 41.184 270.047 41.136 270.207 41.04C270.399 40.944 270.543 40.848 270.639 40.752L271.263 41.424L266.079 46.224L265.455 45.552C265.615 45.424 265.743 45.248 265.839 45.024C265.967 44.768 265.983 44.576 265.887 44.448C264.735 43.04 263.151 42.336 261.135 42.336C259.311 42.336 257.775 42.944 256.527 44.16C255.311 45.376 254.703 46.96 254.703 48.912C254.703 50.928 255.295 52.544 256.479 53.76C257.663 54.976 259.215 55.584 261.135 55.584C262.095 55.584 262.879 55.472 263.487 55.248C264.095 54.992 264.783 54.528 265.551 53.856C265.615 53.792 265.647 53.712 265.647 53.616C265.647 53.424 265.535 53.216 265.311 52.992L265.887 52.272L271.071 56.592L270.495 57.264C269.983 56.976 269.631 56.928 269.439 57.12C268.255 58.432 267.007 59.408 265.695 60.048C264.415 60.688 262.687 61.008 260.511 61.008ZM295.729 58.848C295.857 59.008 296.241 59.088 296.881 59.088V60H288.097V59.088C288.481 59.088 288.673 59.008 288.673 58.848C288.673 58.784 288.609 58.656 288.481 58.464L283.921 52.176L281.329 55.2V58.56C281.329 58.72 281.441 58.848 281.665 58.944C281.921 59.04 282.161 59.088 282.385 59.088V60H274.177V59.088C274.401 59.088 274.625 59.04 274.849 58.944C275.105 58.848 275.233 58.72 275.233 58.56V25.44C275.233 25.28 275.105 25.152 274.849 25.056C274.625 24.96 274.401 24.912 274.177 24.912V24H282.385V24.912C282.161 24.912 281.921 24.96 281.665 25.056C281.441 25.152 281.329 25.28 281.329 25.44V46.656L287.665 39.36L287.761 39.168C287.761 38.944 287.473 38.832 286.897 38.832V37.92H296.497V38.832H296.065C295.649 38.832 295.377 38.896 295.249 39.024L287.521 48L295.729 58.848Z" fill="#FAFAFA"/>
<path d="M12.0408 10.1459C12.0013 10.0548 11.9902 9.95398 12.0087 9.85646C12.0273 9.75895 12.0748 9.66928 12.145 9.59908C12.2152 9.52889 12.3048 9.48142 12.4024 9.46285C12.4999 9.44427 12.6007 9.45544 12.6918 9.49491L28.6918 15.9949C28.7891 16.0345 28.8714 16.1038 28.9271 16.1929C28.9828 16.282 29.009 16.3863 29.0021 16.4911C28.9951 16.596 28.9553 16.6959 28.8883 16.7768C28.8213 16.8578 28.7305 16.9155 28.6288 16.9419L22.5048 18.5219C22.1588 18.6109 21.8429 18.7909 21.59 19.0432C21.3372 19.2956 21.1565 19.6111 21.0668 19.9569L19.4878 26.0829C19.4614 26.1846 19.4037 26.2754 19.3227 26.3424C19.2418 26.4094 19.1419 26.4492 19.037 26.4562C18.9322 26.4631 18.8279 26.4369 18.7388 26.3812C18.6497 26.3255 18.5804 26.2432 18.5408 26.1459L12.0408 10.1459Z" stroke="#FAFAFA" stroke-width="3" stroke-linecap="round" stroke-linejoin="round"/>
<path d="M45.6748 39.7791L60.3453 25.1086" stroke="#FAFAFA" stroke-width="6" stroke-linecap="round" stroke-linejoin="round"/>
<path d="M72.3252 7.92904C71.7177 7.33355 70.9009 7 70.0502 7C69.1995 7 68.3827 7.33355 67.7752 7.92904L64.1547 11.5495C62.9356 12.7682 62.2506 14.4213 62.2502 16.145V20.513C62.2498 22.2368 61.5648 23.8898 60.3457 25.1085C61.5644 23.8895 63.2174 23.2044 64.9412 23.204H69.3092C71.033 23.2037 72.686 22.5186 73.9047 21.2995L77.5252 17.679C78.1207 17.0715 78.4542 16.2547 78.4542 15.404C78.4542 14.5533 78.1207 13.7366 77.5252 13.129L72.3252 7.92904Z" stroke="#FAFAFA" stroke-width="6" stroke-linecap="round" stroke-linejoin="round"/>
<path d="M26.5 52.4541L33 58.9541" stroke="#FAFAFA" stroke-width="6" stroke-linecap="round" stroke-linejoin="round"/>
<path d="M33.7475 32.4666C34.4861 30.687 35.7354 29.1662 37.3376 28.0961C38.9399 27.026 40.8233 26.4546 42.75 26.4541C47.0598 26.4541 51.193 28.1662 54.2405 31.2136C57.288 34.2611 59 38.3943 59 42.7041C58.9995 44.6308 58.4281 46.5142 57.358 48.1165C56.2879 49.7187 54.7671 50.968 52.9875 51.7066L49.9975 52.9416C48.8114 53.4364 47.7987 54.2716 47.0872 55.3418C46.3756 56.4119 45.9973 57.669 46 58.9541C46 62.4019 44.6304 65.7085 42.1924 68.1465C39.7544 70.5845 36.4478 71.9541 33 71.9541C27.8283 71.9541 22.8684 69.8996 19.2114 66.2427C15.5545 62.5857 13.5 57.6258 13.5 52.4541C13.5 49.0063 14.8696 45.6997 17.3076 43.2617C19.7456 40.8237 23.0522 39.4541 26.5 39.4541C27.7851 39.4568 29.0422 39.0785 30.1123 38.3669C31.1825 37.6554 32.0177 36.6427 32.5125 35.4566L33.7475 32.4666Z" stroke="#FAFAFA" stroke-width="6" stroke-linecap="round" stroke-linejoin="round"/>
</g>
<defs>
<clipPath id="clip0_16_555">
<rect width="306" height="78" fill="white"/>
</clipPath>
</defs>
</svg>
