<svg width="100" height="100" viewBox="0 0 100 100" fill="none" xmlns="http://www.w3.org/2000/svg">
<path d="M66.6673 41.6666C66.6673 43.8767 65.7893 45.9963 64.2265 47.5591C62.6637 49.1219 60.5441 49.9999 58.334 49.9999H28.4507C26.2407 50.0004 24.1214 50.8787 22.559 52.4416L13.384 61.6166C12.9703 62.0302 12.4432 62.3119 11.8694 62.426C11.2955 62.5402 10.7008 62.4816 10.1603 62.2577C9.61975 62.0338 9.15775 61.6547 8.83267 61.1683C8.5076 60.6819 8.33406 60.11 8.33398 59.5249V16.6666C8.33398 14.4564 9.21196 12.3368 10.7748 10.774C12.3376 9.21123 14.4572 8.33325 16.6673 8.33325H58.334C60.5441 8.33325 62.6637 9.21123 64.2265 10.774C65.7893 12.3368 66.6673 14.4564 66.6673 16.6666V41.6666Z" stroke="#FAFAFA" stroke-width="10" stroke-linecap="round" stroke-linejoin="round"/>
<path d="M83.334 37.5C85.5441 37.5 87.6637 38.378 89.2265 39.9408C90.7893 41.5036 91.6673 43.6232 91.6673 45.8333V88.6917C91.6672 89.2767 91.4937 89.8486 91.1686 90.335C90.8436 90.8215 90.3816 91.2006 89.841 91.4244C89.3005 91.6483 88.7058 91.7069 88.1319 91.5928C87.5581 91.4787 87.0311 91.197 86.6173 90.7833L77.4423 81.6083C75.8799 80.0454 73.7606 79.1671 71.5507 79.1667H41.6673C39.4572 79.1667 37.3376 78.2887 35.7748 76.7259C34.212 75.1631 33.334 73.0435 33.334 70.8333V66.6667" stroke="#FAFAFA" stroke-width="10" stroke-linecap="round" stroke-linejoin="round"/>
</svg>
