<svg width="100" height="100" viewBox="0 0 100 100" fill="none" xmlns="http://www.w3.org/2000/svg">
<path d="M57.634 69.0333C58.4945 69.4285 59.464 69.5187 60.3827 69.2893C61.3014 69.0598 62.1145 68.5242 62.6882 67.7708L64.1673 65.8333C64.9435 64.7983 65.9501 63.9583 67.1072 63.3797C68.2643 62.8011 69.5403 62.4999 70.834 62.4999H83.334C85.5441 62.4999 87.6637 63.3779 89.2265 64.9407C90.7893 66.5035 91.6673 68.6231 91.6673 70.8333V83.3333C91.6673 85.5434 90.7893 87.663 89.2265 89.2258C87.6637 90.7886 85.5441 91.6666 83.334 91.6666C63.4428 91.6666 44.3662 83.7648 30.301 69.6996C16.2357 55.6344 8.33398 36.5578 8.33398 16.6666C8.33398 14.4564 9.21196 12.3368 10.7748 10.774C12.3376 9.21123 14.4572 8.33325 16.6673 8.33325H29.1673C31.3775 8.33325 33.4971 9.21123 35.0599 10.774C36.6227 12.3368 37.5007 14.4564 37.5007 16.6666V29.1666C37.5007 30.4603 37.1994 31.7362 36.6209 32.8934C36.0423 34.0505 35.2023 35.057 34.1673 35.8333L32.2173 37.2958C31.4524 37.8798 30.9132 38.7107 30.6914 39.6472C30.4697 40.5837 30.5789 41.5682 31.0007 42.4333C36.6952 53.9994 46.0608 63.3532 57.634 69.0333Z" stroke="#FAFAFA" stroke-width="10" stroke-linecap="round" stroke-linejoin="round"/>
</svg>
