<svg width="174" height="174" viewBox="0 0 174 174" fill="none" xmlns="http://www.w3.org/2000/svg">
<rect width="174" height="174" fill="#3B82F6"/>
<path fill-rule="evenodd" clip-rule="evenodd" d="M139.8 35.5433C148.718 44.5947 149.172 48.654 142.158 56.5992C136.263 63.276 129.427 66.4782 121.067 66.4782C116.746 66.4782 114.086 67.5162 111.563 70.1879C108.328 73.6129 108.23 74.2347 110.292 78.3095C116.268 90.1191 114.593 102.056 105.894 109.653C102.882 112.283 99.6221 114.434 98.6499 114.434C95.2155 114.434 91.1932 119.612 91.1932 124.033C91.1932 137.834 75.1878 149.834 59.5324 147.767C49.4844 146.441 41.715 142.371 34.8898 134.859C27.7675 127.018 25.3721 119.57 26.1358 107.642C27.0909 92.7242 35.0173 84.1586 49.8266 82.0423C55.185 81.2766 56.3889 80.2695 60.0659 73.4814C62.3571 69.2488 66.2737 64.5538 68.7686 63.047C74.3914 59.6514 86.1878 59.4611 93.8452 62.6433C99.3561 64.9328 99.6283 64.8833 103.906 60.807C107.538 57.3464 108.303 55.323 108.303 49.1768C108.303 42.7615 109.101 40.8572 114.086 35.3685C124.262 24.1669 128.621 24.1963 139.8 35.5433ZM45.3951 39.878C56.112 44.4106 59.3069 46.4542 59.3069 48.7731C59.3069 50.9358 57.5213 52.3435 52.9545 53.7822C47.5183 55.4931 46.3968 56.6101 45.1774 61.5171C44.1695 65.5748 42.8022 67.3863 40.5049 67.7127C37.7595 68.1041 36.3799 66.0667 31.5612 54.5062C25.1435 39.106 24.4248 33.9917 28.6743 33.9917C30.2204 33.9917 37.744 36.6402 45.3951 39.878ZM122.572 43.7593C120.712 45.7286 119.191 48.8613 119.191 50.7207C119.191 55.4715 126.811 55.3415 131.371 50.5134L134.762 46.9229L131.154 43.552C126.694 39.3845 126.705 39.3845 122.572 43.7593ZM36.3985 48.722L38.9074 55.4576L42.5829 51.5143C46.823 46.9647 46.9988 47.3901 39.5981 44.3394L33.8881 41.9865L36.3985 48.722ZM75.1101 73.0235C73.536 74.1914 70.6833 78.2445 68.7701 82.0284C65.0355 89.4121 61.063 92.1503 52.0757 93.5317C36.3239 95.9543 31.7151 113.047 43.2829 126.148C49.349 133.02 55.2597 136.092 62.4178 136.092C73.2855 136.092 80.3052 129.468 80.3052 119.212C80.3052 113.666 85.603 106.925 92.0767 104.235C99.2923 101.237 102.084 97.8911 102.058 92.2802C102.011 82.8762 99.7947 82.0671 92.772 88.8877C87.5939 93.9154 85.9592 94.7275 83.7645 93.3585C79.0857 90.4424 79.6053 85.1347 85.1224 79.4728C87.9159 76.6047 89.812 73.8712 89.336 73.3963C87.2082 71.28 77.7901 71.0325 75.1101 73.0235ZM61.6556 109.218C65.0915 112.306 68.3222 116.492 68.8339 118.52C69.7485 122.146 67.3065 126.81 64.4943 126.81C61.3678 126.81 47.6412 112.357 47.6412 109.066C47.6412 101.646 53.2967 101.707 61.6556 109.218Z" fill="white"/>
</svg>
