<svg width="78" height="79" viewBox="0 0 78 79" fill="none" xmlns="http://www.w3.org/2000/svg">
<path fill-rule="evenodd" clip-rule="evenodd" d="M73.1633 5.52261C78.8963 11.3736 79.1883 13.9976 74.6793 19.1336C70.8893 23.4496 66.4943 25.5196 61.1193 25.5196C58.3413 25.5196 56.6313 26.1906 55.0093 27.9176C52.9293 30.1316 52.8663 30.5336 54.1923 33.1676C58.0343 40.8016 56.9573 48.5176 51.3643 53.4286C49.4283 55.1286 47.3323 56.5196 46.7073 56.5196C44.4993 56.5196 41.9133 59.8666 41.9133 62.7246C41.9133 71.6456 31.6233 79.4026 21.5583 78.0666C15.0983 77.2096 10.1033 74.5786 5.71532 69.7226C1.13632 64.6536 -0.403679 59.8396 0.0873208 52.1286C0.701321 42.4856 5.79732 36.9486 15.3183 35.5806C18.7633 35.0856 19.5373 34.4346 21.9013 30.0466C23.3743 27.3106 25.8923 24.2756 27.4963 23.3016C31.1113 21.1066 38.6953 20.9836 43.6183 23.0406C47.1613 24.5206 47.3363 24.4886 50.0863 21.8536C52.4213 19.6166 52.9133 18.3086 52.9133 14.3356C52.9133 10.1886 53.4263 8.95761 56.6313 5.40961C63.1733 -1.83139 65.9763 -1.81239 73.1633 5.52261ZM12.4693 8.32461C19.3593 11.2546 21.4133 12.5756 21.4133 14.0746C21.4133 15.4726 20.2653 16.3826 17.3293 17.3126C13.8343 18.4186 13.1133 19.1406 12.3293 22.3126C11.6813 24.9356 10.8023 26.1066 9.32532 26.3176C7.56032 26.5706 6.67332 25.2536 3.57532 17.7806C-0.550678 7.82561 -1.01268 4.51961 1.71932 4.51961C2.71332 4.51961 7.55032 6.23161 12.4693 8.32461ZM62.0873 10.8336C60.8913 12.1066 59.9133 14.1316 59.9133 15.3336C59.9133 18.4046 64.8123 18.3206 67.7443 15.1996L69.9243 12.8786L67.6043 10.6996C64.7373 8.00561 64.7443 8.00561 62.0873 10.8336ZM6.68532 14.0416L8.29832 18.3956L10.6613 15.8466C13.3873 12.9056 13.5003 13.1806 8.74232 11.2086L5.07132 9.68761L6.68532 14.0416ZM31.5733 29.7506C30.5613 30.5056 28.7273 33.1256 27.4973 35.5716C25.0963 40.3446 22.5423 42.1146 16.7643 43.0076C6.63732 44.5736 3.67432 55.6226 11.1113 64.0916C15.0113 68.5336 18.8113 70.5196 23.4133 70.5196C30.4003 70.5196 34.9133 66.2376 34.9133 59.6076C34.9133 56.0226 38.3193 51.6656 42.4813 49.9266C47.1203 47.9886 48.9153 45.8256 48.8983 42.1986C48.8683 36.1196 47.4433 35.5966 42.9283 40.0056C39.5993 43.2556 38.5483 43.7806 37.1373 42.8956C34.1293 41.0106 34.4633 37.5796 38.0103 33.9196C39.8063 32.0656 41.0253 30.2986 40.7193 29.9916C39.3513 28.6236 33.2963 28.4636 31.5733 29.7506ZM22.9233 53.1476C25.1323 55.1436 27.2093 57.8496 27.5383 59.1606C28.1263 61.5046 26.5563 64.5196 24.7483 64.5196C22.7383 64.5196 13.9133 55.1766 13.9133 53.0496C13.9133 48.2526 17.5493 48.2926 22.9233 53.1476Z" fill="white"/>
</svg>
